<svg width="74" height="20" viewBox="0 0 74 20" fill="none" xmlns="http://www.w3.org/2000/svg">
<path d="M12.0843 15.5036C10.4449 14.8947 8.75877 14.801 7.2131 15.2226C6.13581 15.5036 5.10537 16.0657 4.1686 16.7682L3.51285 17.3303L3.3255 17.5176L3.74704 17.8924C3.79388 17.8924 3.79389 17.9392 3.84073 17.986C3.9344 18.0797 4.02809 18.1265 4.1686 18.2202L4.44962 18.4076L4.73065 18.1734C4.77749 18.1265 4.87117 18.0329 4.96484 17.986C5.80794 17.2835 6.7447 16.8151 7.72831 16.5809C8.99295 16.253 10.3513 16.2999 11.7096 16.8151C12.8337 17.2366 15.1288 17.7518 17.8923 16.5809L17.9859 16.534L18.1264 16.3935C18.1264 16.3467 18.1733 16.3467 18.2201 16.2998C18.4543 16.0188 18.6885 15.7378 18.8759 15.4099L19.8126 13.9579L18.3138 14.801C16.1124 16.0188 14.0983 16.253 12.0843 15.5036Z" fill="#F5F5F7"/>
<path d="M5.66743 10.445C6.93207 10.1172 8.29038 10.164 9.6487 10.6792C11.1475 11.2413 14.9883 12.0376 19.2974 8.14997L20.2342 7.2132L20.1405 6.979C20.0937 6.79165 20 6.55746 19.9063 6.32327L19.6721 5.66752L19.2037 6.1359C19.1569 6.22958 19.0632 6.27642 18.9695 6.3701C16.9087 8.47783 13.7236 10.6324 10.0702 9.32093C8.4309 8.71203 6.74472 8.61835 5.19905 9.03989C3.70022 9.46144 2.38874 10.2577 1.17094 11.3818V11.335L0.468364 12.0844C0.468364 12.1312 0.421534 12.1312 0.374695 12.1781L0.234172 12.3186L0.281013 12.5059C0.327851 12.7401 0.421525 12.9743 0.468364 13.2085L0.749397 13.9579L1.21778 13.349C1.26462 13.2554 1.35829 13.2085 1.40513 13.1148C2.38874 12.2249 3.74706 10.9603 5.66743 10.445Z" fill="#F5F5F7"/>
<path d="M1.12413 9.60196C2.20142 8.47784 3.41921 7.77526 4.73068 7.40055C5.99532 7.07268 7.35364 7.11952 8.71195 7.63474C12.9274 9.18041 16.5808 6.65114 18.1733 5.29282L18.7822 4.68393L19.0164 4.49656L18.8291 4.21554C18.6885 4.07503 18.5949 3.88767 18.4543 3.70032L18.1733 3.3256L17.8454 3.65348C17.7986 3.70032 17.7049 3.79399 17.6581 3.84083C15.6909 5.71436 12.6464 7.63475 9.18033 6.32327C7.54099 5.71437 5.85481 5.62069 4.30914 6.04224C3.32553 6.32327 2.38876 6.79165 1.45199 7.40055L0.468384 8.19681C0.374707 8.29049 0.327869 8.33732 0.234192 8.431L0.140524 8.52467V8.66519C0.0936854 8.99306 0.0936797 9.32093 0.0468413 9.60196L0 10.7729L0.796259 9.92982C0.889936 9.83615 0.983618 9.69564 1.12413 9.60196Z" fill="#F5F5F7"/>
<path d="M13.4426 18.6886C13.3021 18.6418 13.2084 18.595 13.0679 18.5481C11.4286 17.9392 9.74237 17.8456 8.1967 18.2671C7.86883 18.3608 7.54097 18.4544 7.21311 18.595L6.08897 19.1102L5.80795 19.2507L6.74472 19.5786C7.02575 19.6722 7.30678 19.7659 7.58781 19.8596L7.72832 19.9064L7.86884 19.8596C8.00936 19.8128 8.14987 19.7191 8.29038 19.7191C8.38406 19.7191 8.47774 19.6723 8.57142 19.6254C9.69554 19.3444 10.9133 19.3444 12.2248 19.7659C12.3653 19.8128 12.459 19.8596 12.5995 19.9064L12.8337 20.0001L12.9742 19.9533C13.3021 19.8596 13.6768 19.7659 13.9578 19.6254L15.2693 19.157L13.911 18.8292C13.7705 18.7823 13.5831 18.7355 13.4426 18.6886Z" fill="#F5F5F7"/>
<path d="M20.6089 8.99292L19.9064 9.6955C19.8127 9.78917 19.719 9.88285 19.6254 9.97653C17.705 11.8032 14.6136 13.7704 11.1476 12.459C9.50825 11.8501 7.82207 11.7564 6.2764 12.1779C4.82441 12.5995 3.51292 13.3489 2.34196 14.473L1.73307 15.1288L1.54572 15.3629L1.73307 15.644C1.87358 15.8313 1.96726 15.9719 2.06094 16.1592L2.34196 16.5807L2.66983 16.1592C2.71667 16.1124 2.81035 16.0187 2.85719 15.9718C3.98131 14.754 5.19911 14.0046 6.60426 13.6299C7.8689 13.3021 9.22721 13.3489 10.5855 13.8641C11.7565 14.2857 12.9743 14.4262 14.1921 14.2857C16.3467 14.0515 18.5012 12.8337 20.0937 11.4754C20.1874 11.3817 20.2811 11.3348 20.3748 11.2412L20.5153 11.1006V10.9601C20.5153 10.6791 20.5621 10.3512 20.5621 10.0702L20.6089 8.99292Z" fill="#F5F5F7"/>
<path d="M2.8103 4.68397C3.09133 4.54345 3.41921 4.44977 3.70024 4.35609C4.96488 4.02823 6.32319 4.07506 7.68151 4.59029C8.57144 4.91816 9.46137 5.05867 10.445 5.05867C12.4122 5.05867 14.3794 4.3561 16.2061 2.99778L17.1429 2.24837L16.7213 1.92049C16.5808 1.77998 16.3934 1.63947 16.2061 1.54579L15.9251 1.35844L15.6909 1.54579C15.5972 1.59263 15.5504 1.6863 15.4567 1.73314C12.9742 3.60668 10.4918 4.12191 8.14989 3.23198C6.46371 2.62308 4.77752 2.48256 3.09133 2.99778C2.95082 3.04462 2.8103 3.09145 2.62295 3.13829L2.52928 3.18513L2.38876 3.32564C2.38876 3.37248 2.34193 3.37249 2.29509 3.41933C2.10774 3.70036 1.87354 3.93456 1.68618 4.21559L0.796254 5.5739L2.24825 4.82448C2.48244 4.82448 2.66979 4.73081 2.8103 4.68397Z" fill="#F5F5F7"/>
<path d="M6.65107 1.49882L6.79158 1.54566C7.40048 1.77985 8.33725 2.01405 9.50821 2.01405C10.726 2.01405 11.897 1.73301 13.0679 1.26463L14.5199 0.562052L13.5363 0.234192C13.2553 0.140515 12.9742 0.0468384 12.6464 0H12.5059L12.3654 0.046827C12.2248 0.0936654 12.0843 0.187354 11.9438 0.234192C10.5386 0.749415 9.1335 0.843092 7.77519 0.468384C7.63467 0.421546 7.49416 0.374699 7.35364 0.32786L7.21313 0.281019L7.07261 0.32786C6.79158 0.421537 6.51055 0.51522 6.22952 0.655735L5.15223 1.12412L6.27636 1.45198C6.37004 1.40514 6.51055 1.45198 6.65107 1.49882Z" fill="#F5F5F7"/>
<path d="M34.4775 8.38281H32.3C32.2602 8.10109 32.179 7.85085 32.0564 7.6321C31.9337 7.41004 31.7763 7.22112 31.584 7.06534C31.3918 6.90956 31.1697 6.79025 30.9179 6.70739C30.6693 6.62453 30.3992 6.5831 30.1075 6.5831C29.5805 6.5831 29.1215 6.71402 28.7304 6.97585C28.3393 7.23437 28.036 7.61222 27.8206 8.10938C27.6051 8.60322 27.4974 9.20312 27.4974 9.90909C27.4974 10.6349 27.6051 11.2448 27.8206 11.7386C28.0393 12.2325 28.3442 12.6054 28.7353 12.8572C29.1264 13.1091 29.5788 13.2351 30.0926 13.2351C30.3809 13.2351 30.6477 13.197 30.893 13.1207C31.1416 13.0445 31.362 12.9335 31.5542 12.7876C31.7465 12.6385 31.9055 12.4579 32.0315 12.2457C32.1608 12.0336 32.2502 11.7917 32.3 11.5199L34.4775 11.5298C34.4212 11.9972 34.2803 12.4479 34.0549 12.8821C33.8329 13.313 33.5329 13.6991 33.1551 14.0405C32.7805 14.3786 32.3331 14.647 31.8127 14.8459C31.2957 15.0414 30.7107 15.1392 30.0578 15.1392C29.1496 15.1392 28.3376 14.9337 27.6217 14.5227C26.9091 14.1117 26.3456 13.5168 25.9313 12.7379C25.5204 11.959 25.3149 11.0161 25.3149 9.90909C25.3149 8.79877 25.5237 7.85417 25.9413 7.07528C26.3589 6.2964 26.9257 5.70312 27.6416 5.29545C28.3575 4.88447 29.1629 4.67898 30.0578 4.67898C30.6477 4.67898 31.1946 4.76184 31.6984 4.92756C32.2055 5.09328 32.6546 5.33523 33.0457 5.65341C33.4368 5.96828 33.755 6.3544 34.0002 6.81179C34.2488 7.26918 34.4079 7.79285 34.4775 8.38281Z" fill="#F5F5F7"/>
<path d="M40.8784 11.7486V7.36364H42.9963V15H40.963V13.6129H40.8834C40.7111 14.0604 40.4244 14.42 40.0233 14.6918C39.6256 14.9635 39.14 15.0994 38.5666 15.0994C38.0562 15.0994 37.6071 14.9834 37.2193 14.7514C36.8316 14.5194 36.5283 14.1896 36.3095 13.7621C36.0941 13.3345 35.9847 12.8224 35.9814 12.2259V7.36364H38.0993V11.848C38.1026 12.2988 38.2236 12.6551 38.4622 12.9169C38.7009 13.1787 39.0207 13.3097 39.4218 13.3097C39.677 13.3097 39.9156 13.2517 40.1377 13.1357C40.3597 13.0163 40.5387 12.8407 40.6746 12.6087C40.8138 12.3767 40.8818 12.09 40.8784 11.7486Z" fill="#F5F5F7"/>
<path d="M51.0441 9.54119L49.1052 9.66051C49.072 9.49479 49.0008 9.34564 48.8914 9.21307C48.782 9.07718 48.6378 8.96946 48.4589 8.88991C48.2832 8.80705 48.0727 8.76562 47.8275 8.76562C47.4994 8.76562 47.2226 8.83523 46.9972 8.97443C46.7718 9.11032 46.6592 9.29261 46.6592 9.52131C46.6592 9.7036 46.7321 9.85772 46.8779 9.98366C47.0237 10.1096 47.274 10.2107 47.6286 10.2869L49.0107 10.5653C49.7531 10.7178 50.3066 10.9631 50.6712 11.3011C51.0358 11.6392 51.2181 12.0833 51.2181 12.6335C51.2181 13.134 51.0706 13.5732 50.7756 13.951C50.484 14.3288 50.0829 14.6238 49.5725 14.8359C49.0654 15.0447 48.4804 15.1491 47.8175 15.1491C46.8066 15.1491 46.0012 14.9387 45.4013 14.5178C44.8047 14.0935 44.4551 13.5168 44.3523 12.7876L46.4354 12.6783C46.4984 12.9865 46.6509 13.2218 46.8928 13.3842C47.1348 13.5433 47.4447 13.6229 47.8225 13.6229C48.1937 13.6229 48.492 13.5516 48.7174 13.4091C48.9461 13.2633 49.0621 13.076 49.0654 12.8473C49.0621 12.6551 48.9809 12.4976 48.8218 12.375C48.6627 12.2491 48.4174 12.1529 48.086 12.0866L46.7636 11.8232C46.0178 11.674 45.4627 11.4155 45.0981 11.0476C44.7368 10.6797 44.5562 10.2107 44.5562 9.64062C44.5562 9.15009 44.6887 8.72751 44.9539 8.37287C45.2224 8.01823 45.5985 7.74479 46.0825 7.55256C46.5697 7.36032 47.1397 7.2642 47.7927 7.2642C48.7572 7.2642 49.5162 7.46804 50.0697 7.87571C50.6265 8.28338 50.9513 8.83854 51.0441 9.54119Z" fill="#F5F5F7"/>
<path d="M56.6135 7.36364V8.95455H52.0148V7.36364H56.6135ZM53.0588 5.53409H55.1767V12.6534C55.1767 12.849 55.2066 13.0014 55.2662 13.1108C55.3259 13.2169 55.4087 13.2914 55.5148 13.3345C55.6242 13.3776 55.7501 13.3991 55.8926 13.3991C55.9921 13.3991 56.0915 13.3909 56.1909 13.3743C56.2904 13.3544 56.3666 13.3395 56.4196 13.3295L56.7527 14.9055C56.6467 14.9387 56.4975 14.9768 56.3053 15.0199C56.113 15.0663 55.8794 15.0945 55.6043 15.1044C55.0939 15.1243 54.6464 15.0563 54.262 14.9006C53.8808 14.7448 53.5842 14.5028 53.372 14.1747C53.1599 13.8466 53.0555 13.4323 53.0588 12.9318V5.53409Z" fill="#F5F5F7"/>
<path d="M61.3614 15.1491C60.5891 15.1491 59.9213 14.9851 59.3578 14.657C58.7977 14.3255 58.3652 13.8648 58.0603 13.2749C57.7553 12.6816 57.6029 11.9938 57.6029 11.2116C57.6029 10.4228 57.7553 9.73343 58.0603 9.14347C58.3652 8.55019 58.7977 8.08949 59.3578 7.76136C59.9213 7.42992 60.5891 7.2642 61.3614 7.2642C62.1336 7.2642 62.7998 7.42992 63.36 7.76136C63.9234 8.08949 64.3576 8.55019 64.6625 9.14347C64.9675 9.73343 65.1199 10.4228 65.1199 11.2116C65.1199 11.9938 64.9675 12.6816 64.6625 13.2749C64.3576 13.8648 63.9234 14.3255 63.36 14.657C62.7998 14.9851 62.1336 15.1491 61.3614 15.1491ZM61.3713 13.5085C61.7227 13.5085 62.016 13.4091 62.2513 13.2102C62.4866 13.008 62.6639 12.733 62.7833 12.3849C62.9059 12.0369 62.9672 11.6409 62.9672 11.1967C62.9672 10.7526 62.9059 10.3565 62.7833 10.0085C62.6639 9.66051 62.4866 9.38542 62.2513 9.18324C62.016 8.98106 61.7227 8.87997 61.3713 8.87997C61.0167 8.87997 60.7184 8.98106 60.4764 9.18324C60.2378 9.38542 60.0572 9.66051 59.9345 10.0085C59.8152 10.3565 59.7556 10.7526 59.7556 11.1967C59.7556 11.6409 59.8152 12.0369 59.9345 12.3849C60.0572 12.733 60.2378 13.008 60.4764 13.2102C60.7184 13.4091 61.0167 13.5085 61.3713 13.5085Z" fill="#F5F5F7"/>
<path d="M72.8507 9.54119L70.9118 9.66051C70.8787 9.49479 70.8074 9.34564 70.698 9.21307C70.5887 9.07718 70.4445 8.96946 70.2655 8.88991C70.0898 8.80705 69.8794 8.76562 69.6341 8.76562C69.306 8.76562 69.0292 8.83523 68.8039 8.97443C68.5785 9.11032 68.4658 9.29261 68.4658 9.52131C68.4658 9.7036 68.5387 9.85772 68.6845 9.98366C68.8304 10.1096 69.0806 10.2107 69.4353 10.2869L70.8174 10.5653C71.5598 10.7178 72.1133 10.9631 72.4779 11.3011C72.8425 11.6392 73.0247 12.0833 73.0247 12.6335C73.0247 13.134 72.8773 13.5732 72.5823 13.951C72.2906 14.3288 71.8896 14.6238 71.3792 14.8359C70.872 15.0447 70.2871 15.1491 69.6242 15.1491C68.6133 15.1491 67.8079 14.9387 67.208 14.5178C66.6114 14.0935 66.2617 13.5168 66.159 12.7876L68.2421 12.6783C68.305 12.9865 68.4575 13.2218 68.6995 13.3842C68.9414 13.5433 69.2513 13.6229 69.6292 13.6229C70.0004 13.6229 70.2987 13.5516 70.524 13.4091C70.7527 13.2633 70.8687 13.076 70.872 12.8473C70.8687 12.6551 70.7875 12.4976 70.6284 12.375C70.4693 12.2491 70.2241 12.1529 69.8926 12.0866L68.5702 11.8232C67.8245 11.674 67.2693 11.4155 66.9047 11.0476C66.5434 10.6797 66.3628 10.2107 66.3628 9.64062C66.3628 9.15009 66.4954 8.72751 66.7605 8.37287C67.029 8.01823 67.4052 7.74479 67.8891 7.55256C68.3763 7.36032 68.9464 7.2642 69.5993 7.2642C70.5638 7.2642 71.3228 7.46804 71.8763 7.87571C72.4331 8.28338 72.7579 8.83854 72.8507 9.54119Z" fill="#F5F5F7"/>
</svg>
